<svg width="1770" height="324" viewBox="0 0 1770 324" fill="none" xmlns="http://www.w3.org/2000/svg">
<path fill-rule="evenodd" clip-rule="evenodd" d="M103.824 159.788H205.18L87.8701 272.212L80.5459 324H0L106.59 139.38L103.824 159.788ZM374.123 324H261.985L269.31 272.212H167.954L281.434 163.458L374.123 324ZM248.664 106.698H125.459L187.062 0L248.664 106.698Z" fill="url(#paint0_radial_1_1087)"/>
<path d="M1702.14 244.471C1678.58 244.471 1660.6 237.16 1648.22 222.54C1635.83 207.747 1629.64 187.88 1629.64 162.939C1629.64 146.427 1632.39 132.15 1637.9 120.11C1643.4 108.069 1651.49 98.6947 1662.15 91.9865C1672.99 85.2782 1686.15 81.9241 1701.63 81.9241C1723.82 81.9241 1740.76 88.8904 1752.46 102.823C1764.15 116.583 1770 136.794 1770 163.455V171.712H1663.7C1664.56 185.816 1668.17 197.169 1674.54 205.769C1681.07 214.369 1690.27 218.67 1702.14 218.67C1711.09 218.67 1718.23 216.089 1723.56 210.929C1729.06 205.769 1732.85 199.147 1734.91 191.062H1768.19C1766.3 201.039 1762.69 210.069 1757.36 218.154C1752.2 226.066 1745.06 232.43 1735.94 237.246C1726.83 242.062 1715.56 244.471 1702.14 244.471ZM1663.96 148.491H1735.94C1735.25 135.246 1731.9 125.012 1725.88 117.788C1720.03 110.563 1711.86 106.951 1701.37 106.951C1690.53 106.951 1681.93 110.477 1675.57 117.529C1669.2 124.582 1665.33 134.902 1663.96 148.491Z" fill="#026CFF"/>
<path d="M1530.71 296.073C1517.98 296.073 1507.49 294.439 1499.23 291.17C1490.97 288.074 1484.44 284.032 1479.62 279.044C1474.98 274.228 1471.54 269.154 1469.3 263.821C1467.24 258.489 1465.95 253.587 1465.43 249.115H1499.75C1500.78 254.447 1503.62 259.263 1508.26 263.563C1513.08 268.036 1520.73 270.272 1531.22 270.272C1542.58 270.272 1551.26 267.003 1557.28 260.467C1563.47 253.931 1566.57 243.955 1566.57 230.538V212.735H1560.38C1557.8 219.788 1553.15 225.55 1546.45 230.022C1539.91 234.322 1531.14 236.472 1520.13 236.472C1500.52 236.472 1485.3 229.506 1474.46 215.573C1463.62 201.641 1458.21 182.72 1458.21 158.811C1458.21 143.503 1460.61 130.086 1465.43 118.562C1470.25 107.037 1477.21 98.0927 1486.33 91.7285C1495.62 85.1922 1506.97 81.9241 1520.39 81.9241C1531.57 81.9241 1540.34 84.1602 1546.7 88.6323C1553.24 92.9325 1558.06 98.4367 1561.15 105.145H1567.34V85.7942H1599.08V230.538C1599.08 251.523 1593.32 267.692 1581.79 279.044C1570.44 290.396 1553.41 296.073 1530.71 296.073ZM1527.61 210.155C1539.31 210.155 1548.34 205.511 1554.7 196.223C1561.24 186.762 1564.51 174.378 1564.51 159.069C1564.51 143.761 1561.24 131.462 1554.7 122.174C1548.34 112.885 1539.39 108.241 1527.87 108.241C1517.03 108.241 1508.6 112.627 1502.58 121.4C1496.56 130 1493.55 142.557 1493.55 159.069C1493.55 175.926 1496.56 188.654 1502.58 197.255C1508.6 205.855 1516.95 210.155 1527.61 210.155Z" fill="#026CFF"/>
<path d="M1346.75 243.955C1332.99 243.955 1321.46 240.6 1312.17 233.892C1302.88 227.012 1295.83 217.466 1291.02 205.253C1286.37 193.041 1284.05 178.936 1284.05 162.939C1284.05 146.771 1286.37 132.666 1291.02 120.626C1295.83 108.585 1302.88 99.2109 1312.17 92.5026C1321.63 85.7943 1333.24 82.4402 1347 82.4402C1358.18 82.4402 1367.21 84.6763 1374.1 89.1485C1381.15 93.6206 1386.31 99.2109 1389.58 105.919H1395.77V85.7943H1427.5V240.6H1395.77V220.476H1389.58C1386.31 226.84 1381.15 232.344 1374.1 236.988C1367.21 241.633 1358.1 243.955 1346.75 243.955ZM1354.74 217.638C1366.44 217.638 1375.73 212.735 1382.61 202.931C1389.49 192.955 1392.93 179.71 1392.93 163.197C1392.93 146.685 1389.49 133.526 1382.61 123.722C1375.73 113.745 1366.44 108.757 1354.74 108.757C1343.74 108.757 1335.22 113.401 1329.2 122.69C1323.18 131.978 1320.17 145.481 1320.17 163.197C1320.17 180.914 1323.18 194.417 1329.2 203.705C1335.22 212.993 1343.74 217.638 1354.74 217.638Z" fill="#026CFF"/>
<path d="M1120.47 292.203V85.7943H1152.21V105.919H1158.4C1161.67 99.5549 1166.74 94.0507 1173.62 89.4065C1180.67 84.7623 1190.05 82.4402 1201.74 82.4402C1215.33 82.4402 1226.69 85.8803 1235.8 92.7606C1245.09 99.4689 1252.06 108.929 1256.7 121.142C1261.52 133.182 1263.92 147.287 1263.92 163.455C1263.92 179.452 1261.52 193.557 1256.7 205.769C1252.06 217.81 1245.09 227.184 1235.8 233.892C1226.69 240.601 1215.42 243.955 1202 243.955C1191.68 243.955 1183.25 242.063 1176.72 238.278C1170.18 234.494 1165.11 229.334 1161.49 222.798H1155.3V292.203H1120.47ZM1193.23 217.638C1204.24 217.638 1212.75 212.993 1218.77 203.705C1224.79 194.417 1227.8 180.914 1227.8 163.197C1227.8 145.481 1224.79 131.978 1218.77 122.69C1212.75 113.401 1204.24 108.757 1193.23 108.757C1181.53 108.757 1172.25 113.745 1165.36 123.722C1158.48 133.526 1155.04 146.685 1155.04 163.197C1155.04 179.71 1158.48 192.955 1165.36 202.931C1172.25 212.735 1181.53 217.638 1193.23 217.638Z" fill="#026CFF"/>
<path d="M978.11 292.203V291.171C982.754 283.946 987.656 275.432 992.817 265.628C998.149 255.823 1002.88 246.191 1007.01 236.73L952.567 87.3425V85.7944H987.14L1009.59 147.717C1011.65 153.565 1013.72 159.843 1015.78 166.552C1018.02 173.26 1020.25 181.602 1022.49 191.579H1028.68C1030.74 181.602 1032.81 173.26 1034.87 166.552C1037.11 159.843 1039.26 153.565 1041.32 147.717L1063.77 85.7944H1096.28V87.3425L1045.97 223.056C1040.29 238.537 1034.61 252.211 1028.94 264.08C1023.43 276.12 1018.62 285.494 1014.49 292.203H978.11Z" fill="#026CFF"/>
<path d="M882.13 240.601V111.337H859.941V85.7944H882.13V76.248C882.13 67.8196 883.592 60.4233 886.516 54.0591C889.44 47.6948 894.256 42.7066 900.965 39.0945C907.845 35.4823 917.219 33.6763 929.088 33.6763C933.388 33.6763 937.43 33.9343 941.214 34.4503V59.7353C939.15 59.2193 936.398 58.9613 932.958 58.9613C926.25 58.9613 921.691 60.5093 919.283 63.6055C917.047 66.7016 915.929 71.1738 915.929 77.022V85.7944H941.214V111.337H915.929V240.601H882.13Z" fill="#026CFF"/>
<path d="M796.648 240.601V85.7943H831.479V240.601H796.648ZM814.193 66.1855C807.828 66.1855 802.926 64.4655 799.486 61.0253C796.046 57.4132 794.326 52.769 794.326 47.0928C794.326 41.4165 796.046 36.8583 799.486 33.4182C802.926 29.8061 807.828 28 814.193 28C820.729 28 825.631 29.8061 828.899 33.4182C832.339 36.8583 834.06 41.4165 834.06 47.0928C834.06 52.769 832.339 57.4132 828.899 61.0253C825.631 64.4655 820.729 66.1855 814.193 66.1855Z" fill="#026CFF"/>
<path d="M642.317 240.601V210.671L702.95 136.622C705.874 133.182 708.798 129.742 711.722 126.302C714.818 122.862 717.656 119.938 720.236 117.53V111.337H645.672V85.7944H761.776V115.724L701.402 189.773C698.65 193.213 695.812 196.567 692.887 199.835C690.135 202.931 687.211 205.941 684.115 208.865V215.058H765.13V240.601H642.317Z" fill="#026CFF"/>
<path d="M445 240.601V239.053L507.955 39.3525H565.233L628.445 239.053V240.601H591.034L538.658 67.4757H532.465L479.573 240.601H445ZM491.442 186.16L499.956 157.779H570.909L579.423 186.16H491.442Z" fill="#026CFF"/>
<defs>
<radialGradient id="paint0_radial_1_1087" cx="0" cy="0" r="1" gradientTransform="matrix(240.073 134.675 -155.509 277.211 116.458 162.651)" gradientUnits="userSpaceOnUse">
<stop stop-color="#00AAFF"/>
<stop offset="0.783654" stop-color="#051EFF"/>
<stop offset="0.783754"/>
</radialGradient>
</defs>
</svg>
